<svg width="328" height="328" viewBox="0 0 328 328" fill="none" xmlns="http://www.w3.org/2000/svg">
<path d="M322.487 204.184C322.007 206.076 320.152 207.642 316.933 208.771C313.736 209.894 309.325 210.536 303.995 210.671C293.342 210.941 279.136 209.183 263.91 205.323C248.684 201.462 235.357 196.238 226.119 190.925C221.498 188.267 217.926 185.601 215.65 183.091C213.358 180.564 212.473 178.303 212.953 176.412C213.432 174.52 215.288 172.954 218.506 171.825C221.703 170.702 226.114 170.06 231.444 169.925C242.097 169.655 256.303 171.413 271.529 175.273C286.755 179.134 300.082 184.358 309.32 189.671C313.941 192.329 317.514 194.995 319.79 197.505C322.081 200.032 322.966 202.293 322.487 204.184Z" fill="#FBFDFC" stroke="#828282"/>
<path d="M207.929 321.488C206.052 322.018 203.768 321.194 201.18 318.972C198.61 316.764 195.848 313.265 193.066 308.717C187.506 299.626 181.925 286.445 177.655 271.328C173.386 256.212 171.246 242.058 171.228 231.402C171.22 226.07 171.743 221.644 172.778 218.418C173.821 215.17 175.336 213.273 177.214 212.742C179.092 212.212 181.376 213.036 183.963 215.258C186.534 217.466 189.295 220.965 192.077 225.513C197.638 234.604 203.218 247.786 207.488 262.902C211.758 278.018 213.898 292.172 213.915 302.828C213.924 308.16 213.401 312.587 212.365 315.813C211.322 319.061 209.807 320.958 207.929 321.488Z" fill="#FBFDFC" stroke="#828282"/>
<path d="M280.094 279.124C278.734 280.522 276.344 280.95 272.991 280.319C269.662 279.693 265.521 278.043 260.837 275.495C251.477 270.403 240.052 261.778 228.797 250.821C217.541 239.865 208.611 228.677 203.268 219.457C200.594 214.844 198.834 210.749 198.118 207.438C197.397 204.103 197.761 201.703 199.122 200.305C200.483 198.907 202.872 198.478 206.225 199.109C209.554 199.736 213.696 201.385 218.379 203.933C227.74 209.026 239.164 217.651 250.419 228.607C261.675 239.564 270.605 250.751 275.948 259.971C278.622 264.584 280.382 268.679 281.098 271.991C281.819 275.325 281.455 277.725 280.094 279.124Z" fill="#FBFDFC" stroke="#828282"/>
<path d="M203.217 5.26934C205.108 5.7489 206.674 7.60425 207.804 10.8229C208.926 14.0197 209.568 18.4308 209.703 23.7608C209.973 34.4136 208.215 48.6198 204.355 63.8458C200.494 79.0719 195.271 92.3992 189.958 101.636C187.299 106.258 184.633 109.83 182.123 112.106C179.596 114.398 177.335 115.283 175.444 114.803C173.553 114.324 171.987 112.468 170.857 109.25C169.735 106.053 169.092 101.642 168.957 96.3118C168.687 85.659 170.445 71.4528 174.306 56.2268C178.166 41.0008 183.39 27.6734 188.703 18.4362C191.361 13.8144 194.028 10.2423 196.538 7.96634C199.064 5.67488 201.325 4.78978 203.217 5.26934Z" fill="#FBFDFC" stroke="#828282"/>
<path d="M276.2 45.7522C277.598 47.1132 278.027 49.5029 277.396 52.8552C276.769 56.1849 275.12 60.326 272.572 65.0095C267.479 74.3701 258.854 85.7942 247.898 97.05C236.941 108.306 225.754 117.236 216.534 122.579C211.921 125.252 207.826 127.013 204.514 127.729C201.18 128.45 198.78 128.086 197.381 126.725C195.983 125.364 195.555 122.974 196.186 119.622C196.812 116.292 198.462 112.151 201.01 107.468C206.102 98.1071 214.727 86.683 225.684 75.4272C236.64 64.1713 247.828 55.2413 257.048 49.8982C261.661 47.2249 265.756 45.4644 269.067 44.7483C272.402 44.0273 274.802 44.3912 276.2 45.7522Z" fill="#FBFDFC" stroke="#828282"/>
<path d="M319.56 116.563C320.09 118.441 319.266 120.724 317.044 123.312C314.836 125.882 311.337 128.644 306.789 131.426C297.698 136.986 284.517 142.567 269.4 146.837C254.284 151.107 240.13 153.247 229.474 153.264C224.142 153.272 219.715 152.749 216.489 151.714C213.242 150.671 211.345 149.156 210.814 147.278C210.284 145.4 211.108 143.117 213.33 140.529C215.538 137.958 219.037 135.197 223.585 132.415C232.676 126.855 245.857 121.274 260.974 117.004C276.09 112.734 290.244 110.594 300.9 110.577C306.232 110.569 310.659 111.092 313.885 112.127C317.133 113.17 319.029 114.685 319.56 116.563Z" fill="#FBFDFC" stroke="#828282"/>
<path d="M115.051 151.588C114.571 153.48 112.716 155.046 109.497 156.175C106.3 157.298 101.889 157.94 96.5591 158.075C85.9063 158.345 71.7002 156.587 56.4741 152.727C41.2481 148.866 27.9207 143.642 18.6835 138.329C14.0618 135.671 10.4896 133.005 8.21369 130.495C5.92223 127.968 5.03712 125.707 5.51668 123.816C5.99624 121.924 7.8516 120.358 11.0702 119.229C14.2671 118.106 18.6781 117.464 24.0081 117.329C34.661 117.059 48.8671 118.817 64.0932 122.677C79.3192 126.538 92.6466 131.762 101.884 137.075C106.506 139.733 110.078 142.399 112.354 144.909C114.645 147.436 115.53 149.697 115.051 151.588Z" fill="#FBFDFC" stroke="#828282"/>
<path d="M150.789 115.257C148.911 115.788 146.628 114.964 144.04 112.741C141.469 110.534 138.708 107.035 135.926 102.487C130.366 93.396 124.785 80.2143 120.515 65.0979C116.245 49.9814 114.105 35.8278 114.088 25.1716C114.08 19.8399 114.603 15.4131 115.638 12.1872C116.681 8.93926 118.196 7.04237 120.074 6.512C121.952 5.98163 124.235 6.80547 126.823 9.02798C129.393 11.2354 132.155 14.7344 134.937 19.2828C140.497 28.3734 146.078 41.5552 150.348 56.6716C154.618 71.788 156.757 85.9416 156.775 96.5979C156.783 101.93 156.26 106.356 155.225 109.582C154.182 112.83 152.667 114.727 150.789 115.257Z" fill="#FBFDFC" stroke="#828282"/>
<path d="M128.881 127.695C127.52 129.093 125.131 129.522 121.778 128.891C118.449 128.264 114.308 126.615 109.624 124.067C100.264 118.974 88.8395 110.349 77.5836 99.3925C66.3278 88.4361 57.3977 77.2487 52.0547 68.0288C49.3813 63.4157 47.6209 59.3205 46.9048 56.0089C46.1838 52.6748 46.5476 50.2744 47.9086 48.8762C49.2696 47.478 51.6594 47.0496 55.0117 47.6805C58.3414 48.307 62.4825 49.9564 67.166 52.5044C76.5266 57.597 87.9507 66.2223 99.2065 77.1787C110.462 88.1351 119.392 99.3225 124.735 108.542C127.409 113.156 129.169 117.251 129.885 120.562C130.606 123.896 130.242 126.297 128.881 127.695Z" fill="#FBFDFC" stroke="#828282"/>
<path d="M150.621 212.705C152.512 213.185 154.078 215.04 155.208 218.259C156.33 221.456 156.972 225.867 157.107 231.197C157.377 241.85 155.62 256.056 151.759 271.282C147.898 286.508 142.675 299.835 137.362 309.072C134.703 313.694 132.037 317.266 129.527 319.542C127 321.834 124.739 322.719 122.848 322.239C120.957 321.76 119.391 319.904 118.261 316.686C117.139 313.489 116.497 309.078 116.362 303.748C116.092 293.095 117.849 278.889 121.71 263.663C125.57 248.437 130.794 235.109 136.107 225.872C138.765 221.25 141.432 217.678 143.942 215.402C146.469 213.111 148.729 212.226 150.621 212.705Z" fill="#FBFDFC" stroke="#828282"/>
<path d="M128.683 200.784C130.081 202.145 130.51 204.534 129.879 207.887C129.252 211.216 127.603 215.357 125.055 220.041C119.962 229.402 111.337 240.826 100.381 252.081C89.4243 263.337 78.2369 272.267 69.017 277.61C64.4039 280.284 60.3087 282.044 56.9972 282.76C53.663 283.481 51.2626 283.117 49.8644 281.756C48.4662 280.395 48.0378 278.006 48.6687 274.653C49.2953 271.324 50.9446 267.183 53.4927 262.499C58.5853 253.138 67.2105 241.714 78.1669 230.459C89.1233 219.203 100.311 210.273 109.531 204.93C114.144 202.256 118.239 200.496 121.55 199.78C124.885 199.059 127.285 199.423 128.683 200.784Z" fill="#FBFDFC" stroke="#828282"/>
<path d="M115.25 180.23C115.781 182.108 114.957 184.392 112.734 186.98C110.527 189.55 107.028 192.312 102.479 195.094C93.3888 200.654 80.207 206.235 65.0906 210.504C49.9742 214.774 35.8206 216.914 25.1643 216.931C19.8326 216.94 15.4059 216.417 12.1799 215.381C8.93199 214.339 7.0351 212.823 6.50473 210.946C5.97436 209.068 6.79821 206.784 9.02071 204.196C11.2282 201.626 14.7272 198.864 19.2755 196.082C28.3662 190.522 41.5479 184.941 56.6643 180.672C71.7808 176.402 85.9344 174.262 96.5906 174.245C101.922 174.236 106.349 174.759 109.575 175.795C112.823 176.837 114.72 178.353 115.25 180.23Z" fill="#FBFDFC" stroke="#828282"/>
<path d="M304.826 247.06C303.851 248.75 301.64 249.752 298.235 249.965C294.854 250.176 290.434 249.595 285.268 248.276C274.943 245.64 261.749 240.087 248.146 232.233C234.543 224.379 223.137 215.73 215.692 208.106C211.967 204.291 209.254 200.754 207.746 197.72C206.227 194.666 205.99 192.25 206.966 190.56C207.941 188.87 210.152 187.867 213.557 187.655C216.938 187.444 221.358 188.025 226.524 189.344C236.849 191.979 250.043 197.532 263.646 205.386C277.249 213.24 288.655 221.89 296.1 229.514C299.825 233.328 302.538 236.865 304.046 239.899C305.565 242.954 305.802 245.37 304.826 247.06Z" fill="#FBFDFC" stroke="#828282"/>
<path d="M163 0.500053C164.951 0.500053 166.925 1.91364 168.811 4.75587C170.685 7.57886 172.391 11.6968 173.832 16.8301C176.712 27.0898 178.5 41.2922 178.5 57.0001C178.5 72.7079 176.712 86.9103 173.832 97.17C172.391 102.303 170.685 106.421 168.811 109.244C166.925 112.086 164.951 113.5 163 113.5C161.049 113.5 159.075 112.086 157.189 109.244C155.315 106.421 153.609 102.303 152.168 97.17C149.288 86.9103 147.5 72.7079 147.5 57.0001C147.5 41.2922 149.288 27.0898 152.168 16.8301C153.609 11.6968 155.315 7.57886 157.189 4.75587C159.075 1.91364 161.049 0.500053 163 0.500053Z" fill="#FBFDFC" stroke="#828282"/>
<path d="M245.287 305.861C243.597 306.837 241.181 306.599 238.126 305.081C235.092 303.573 231.555 300.86 227.741 297.135C220.117 289.69 211.467 278.284 203.614 264.68C195.76 251.077 190.207 237.884 187.571 227.558C186.252 222.392 185.671 217.973 185.882 214.591C186.095 211.187 187.097 208.976 188.787 208C190.477 207.024 192.893 207.262 195.948 208.78C198.982 210.288 202.518 213.001 206.333 216.726C213.957 224.171 222.606 235.577 230.46 249.18C238.314 262.784 243.867 275.977 246.503 286.303C247.822 291.469 248.403 295.888 248.192 299.27C247.979 302.674 246.977 304.885 245.287 305.861Z" fill="#FBFDFC" stroke="#828282"/>
<path d="M327.5 164C327.5 165.951 326.086 167.925 323.244 169.811C320.421 171.685 316.303 173.391 311.17 174.832C300.91 177.712 286.708 179.5 271 179.5C255.292 179.5 241.09 177.712 230.83 174.832C225.697 173.391 221.579 171.685 218.756 169.811C215.914 167.925 214.5 165.951 214.5 164C214.5 162.049 215.914 160.075 218.756 158.189C221.579 156.315 225.697 154.609 230.83 153.168C241.09 150.288 255.292 148.5 271 148.5C286.708 148.5 300.91 150.288 311.17 153.168C316.303 154.609 320.421 156.315 323.244 158.189C326.086 160.075 327.5 162.049 327.5 164Z" fill="#FBFDFC" stroke="#828282"/>
<path d="M303.128 79.7855C304.103 81.4753 303.866 83.8915 302.348 86.9462C300.84 89.9801 298.127 93.517 294.402 97.3316C286.957 104.956 275.551 113.605 261.947 121.459C248.344 129.313 235.15 134.866 224.825 137.502C219.659 138.82 215.24 139.401 211.858 139.19C208.454 138.978 206.243 137.975 205.267 136.286C204.291 134.596 204.529 132.18 206.047 129.125C207.555 126.091 210.268 122.554 213.993 118.739C221.438 111.115 232.844 102.466 246.447 94.6121C260.051 86.7582 273.244 81.2052 283.569 78.5695C288.735 77.2507 293.155 76.6697 296.537 76.8807C299.941 77.0931 302.152 78.0957 303.128 79.7855Z" fill="#FBFDFC" stroke="#828282"/>
<path d="M243.695 21.8036C245.384 22.7792 246.387 24.9903 246.599 28.3949C246.81 31.7764 246.229 36.1959 244.911 41.362C242.275 51.6871 236.722 64.8806 228.868 78.484C221.014 92.0874 212.365 103.493 204.741 110.938C200.926 114.664 197.389 117.376 194.355 118.884C191.301 120.403 188.884 120.64 187.195 119.664C185.505 118.689 184.502 116.478 184.29 113.073C184.079 109.692 184.66 105.272 185.979 100.106C188.614 89.7809 194.167 76.5874 202.021 62.984C209.875 49.3806 218.525 37.9749 226.149 30.5296C229.963 26.8045 233.5 24.0916 236.534 22.5836C239.589 21.0652 242.005 20.828 243.695 21.8036Z" fill="#FBFDFC" stroke="#828282"/>
<path d="M139.213 120C137.523 120.975 135.107 120.738 132.052 119.22C129.018 117.712 125.481 114.999 121.667 111.274C114.043 103.829 105.393 92.4228 97.5395 78.8195C89.6856 65.2161 84.1326 52.0225 81.4969 41.6974C80.1781 36.5313 79.5971 32.1118 79.8081 28.7303C80.0205 25.3258 81.0231 23.1146 82.7129 22.139C84.4027 21.1634 86.8189 21.4007 89.8736 22.919C92.9075 24.427 96.4444 27.14 100.259 30.8651C107.883 38.3103 116.532 49.7161 124.386 63.3195C132.24 76.9228 137.793 90.1164 140.429 100.442C141.748 105.608 142.329 110.027 142.118 113.409C141.905 116.813 140.903 119.024 139.213 120Z" fill="#FBFDFC" stroke="#828282"/>
<path d="M113.5 164C113.5 165.951 112.086 167.925 109.244 169.811C106.421 171.685 102.303 173.391 97.1699 174.832C86.9102 177.712 72.7078 179.5 56.9999 179.5C41.2921 179.5 27.0897 177.712 16.83 174.832C11.6967 173.391 7.57875 171.685 4.75577 169.811C1.91354 167.925 0.499946 165.951 0.499946 164C0.499946 162.049 1.91354 160.075 4.75577 158.189C7.57875 156.315 11.6967 154.609 16.83 153.168C27.0897 150.288 41.2921 148.5 56.9999 148.5C72.7078 148.5 86.9102 150.288 97.1699 153.168C102.303 154.609 106.421 156.315 109.244 158.189C112.086 160.075 113.5 162.049 113.5 164Z" fill="#FBFDFC" stroke="#828282"/>
<path d="M121.034 137.44C120.059 139.13 117.847 140.133 114.443 140.345C111.061 140.556 106.642 139.975 101.476 138.656C91.1507 136.021 77.9571 130.468 64.3538 122.614C50.7504 114.76 39.3446 106.11 31.8994 98.4863C28.1743 94.6718 25.4613 91.1349 23.9533 88.1009C22.435 85.0462 22.1977 82.63 23.1733 80.9402C24.1489 79.2504 26.3601 78.2478 29.7646 78.0354C33.1462 77.8244 37.5656 78.4054 42.7317 79.7242C53.0569 82.36 66.2504 87.9129 79.8538 95.7668C93.4571 103.621 104.863 112.27 112.308 119.894C116.033 123.709 118.746 127.246 120.254 130.28C121.773 133.334 122.01 135.75 121.034 137.44Z" fill="#FBFDFC" stroke="#828282"/>
<path d="M163 214.5C164.951 214.5 166.925 215.914 168.811 218.756C170.685 221.579 172.391 225.697 173.832 230.83C176.712 241.09 178.5 255.292 178.5 271C178.5 286.708 176.712 300.91 173.832 311.17C172.391 316.303 170.685 320.421 168.811 323.244C166.925 326.086 164.951 327.5 163 327.5C161.049 327.5 159.075 326.086 157.189 323.244C155.315 320.421 153.609 316.303 152.168 311.17C149.288 300.91 147.5 286.708 147.5 271C147.5 255.292 149.288 241.09 152.168 230.83C153.609 225.697 155.315 221.579 157.189 218.756C159.075 215.914 161.049 214.5 163 214.5Z" fill="#FBFDFC" stroke="#828282"/>
<path d="M138.805 208.336C140.495 209.311 141.498 211.522 141.71 214.927C141.921 218.309 141.34 222.728 140.021 227.894C137.386 238.219 131.833 251.413 123.979 265.016C116.125 278.62 107.475 290.025 99.8514 297.471C96.0369 301.196 92.5 303.909 89.466 305.417C86.4114 306.935 83.9952 307.172 82.3054 306.197C80.6156 305.221 79.6129 303.01 79.4005 299.605C79.1895 296.224 79.7705 291.804 81.0893 286.638C83.7251 276.313 89.278 263.12 97.132 249.516C104.986 235.913 113.635 224.507 121.259 217.062C125.074 213.337 128.611 210.624 131.645 209.116C134.699 207.597 137.116 207.36 138.805 208.336Z" fill="#FBFDFC" stroke="#828282"/>
<path d="M120.733 191.715C121.709 193.404 121.471 195.821 119.953 198.875C118.445 201.909 115.732 205.446 112.007 209.261C104.562 216.885 93.1559 225.534 79.5525 233.388C65.9492 241.242 52.7556 246.795 42.4305 249.431C37.2644 250.749 32.8449 251.33 29.4634 251.119C26.0588 250.907 23.8477 249.904 22.8721 248.215C21.8965 246.525 22.1338 244.109 23.6521 241.054C25.1601 238.02 27.8731 234.483 31.5982 230.668C39.0434 223.045 50.4492 214.395 64.0525 206.541C77.6559 198.687 90.8495 193.134 101.175 190.499C106.341 189.18 110.76 188.599 114.142 188.81C117.546 189.022 119.757 190.025 120.733 191.715Z" fill="#FBFDFC" stroke="#828282"/>
<circle cx="163" cy="164" r="59.5" fill="#FDFDF1" stroke="#CDCD6F"/>
<circle cx="163" cy="164" r="35" fill="#E3F2C8"/>
</svg>
