<svg width="234" height="235" viewBox="0 0 234 235" fill="none" xmlns="http://www.w3.org/2000/svg">
<ellipse cx="190.5" cy="117.5" rx="43.5" ry="17.5" fill="#EEF1F6"/>
<ellipse cx="184.75" cy="145.998" rx="43.5" ry="17.5" transform="rotate(22.8136 184.75 145.998)" fill="#EEF1F6"/>
<ellipse cx="169.41" cy="65.9692" rx="43.5" ry="17.5" transform="rotate(-45 169.41 65.9692)" fill="#EEF1F6"/>
<ellipse cx="185.29" cy="90.3216" rx="43.5" ry="17.5" transform="rotate(-22.1864 185.29 90.3216)" fill="#EEF1F6"/>
<ellipse cx="116.753" cy="191" rx="43.5" ry="17.5" transform="rotate(90 116.753 191)" fill="#EEF1F6"/>
<ellipse cx="88.274" cy="185.154" rx="43.5" ry="17.5" transform="rotate(112.814 88.274 185.154)" fill="#EEF1F6"/>
<ellipse cx="168.627" cy="169.815" rx="43.5" ry="17.5" transform="rotate(45 168.627 169.815)" fill="#EEF1F6"/>
<ellipse cx="144.304" cy="185.74" rx="43.5" ry="17.5" transform="rotate(67.8136 144.304 185.74)" fill="#EEF1F6"/>
<ellipse cx="43.5" cy="117.5" rx="43.5" ry="17.5" fill="#EEF1F6"/>
<ellipse cx="49.2498" cy="89.0015" rx="43.5" ry="17.5" transform="rotate(22.8136 49.2498 89.0015)" fill="#EEF1F6"/>
<ellipse cx="64.5898" cy="169.031" rx="43.5" ry="17.5" transform="rotate(-45 64.5898 169.031)" fill="#EEF1F6"/>
<ellipse cx="48.7095" cy="144.678" rx="43.5" ry="17.5" transform="rotate(-22.1864 48.7095 144.678)" fill="#EEF1F6"/>
<ellipse cx="117.247" cy="44.0004" rx="43.5" ry="17.5" transform="rotate(90 117.247 44.0004)" fill="#EEF1F6"/>
<ellipse cx="145.726" cy="49.846" rx="43.5" ry="17.5" transform="rotate(112.814 145.726 49.846)" fill="#EEF1F6"/>
<ellipse cx="65.3726" cy="65.185" rx="43.5" ry="17.5" transform="rotate(45 65.3726 65.185)" fill="#EEF1F6"/>
<ellipse cx="89.6957" cy="49.2598" rx="43.5" ry="17.5" transform="rotate(67.8136 89.6957 49.2598)" fill="#EEF1F6"/>
<circle cx="117" cy="117" r="40" fill="#FDFDF1"/>
<circle cx="117" cy="117" r="30" fill="#E3F2C8"/>
</svg>
